<?xml version="1.0" encoding="iso-8859-1"?>
<!-- Generator: Adobe Illustrator 18.1.1, SVG Export Plug-In . SVG Version: 6.00 Build 0)  -->
<svg xmlns="http://www.w3.org/2000/svg" xmlns:xlink="http://www.w3.org/1999/xlink" version="1.1" id="Capa_1" x="0px" y="0px" viewBox="0 0 32 32" style="enable-background:new 0 0 32 32;" xml:space="preserve" width="32px" height="32px">
<g>
	<path d="M26.001,1.999V0h-17C8.917,0.006,8.294-0.006,7.554,0.355C6.807,0.685,5.966,1.647,6.001,3   c0,0.003,0,0.006,0,0.009V24c0,2,2,2,2,2h8v6l3-2l3,2v-6h4V4h-2V1.999H26.001z M8.853,3.981C8.674,3.957,8.417,3.87,8.273,3.743   C8.136,3.609,8.016,3.5,8,3c0.035-0.646,0.195-0.685,0.448-0.855c0.129-0.066,0.288-0.109,0.405-0.127   c0.115-0.021,0.148-0.01,0.148-0.019h13V4h-13C9.001,4,8.968,4.002,8.853,3.981z M24.001,24h-14V6h14V24z" fill="#000000"/>
</g>
<g>
</g>
<g>
</g>
<g>
</g>
<g>
</g>
<g>
</g>
<g>
</g>
<g>
</g>
<g>
</g>
<g>
</g>
<g>
</g>
<g>
</g>
<g>
</g>
<g>
</g>
<g>
</g>
<g>
</g>
</svg>
