<?xml version="1.0" encoding="iso-8859-1"?>
<!-- Generator: Adobe Illustrator 18.1.1, SVG Export Plug-In . SVG Version: 6.00 Build 0)  -->
<svg xmlns="http://www.w3.org/2000/svg" xmlns:xlink="http://www.w3.org/1999/xlink" version="1.1" id="Capa_1" x="0px" y="0px" viewBox="0 0 32 32" style="enable-background:new 0 0 32 32;" xml:space="preserve" width="32px" height="32px">
<g>
	<g>
		<path d="M24,14.059V5.584L18.414,0H0v32h24v-0.059c4.499-0.5,7.998-4.31,8-8.941    C31.998,18.366,28.499,14.556,24,14.059z M17.998,2.413L21.586,6h-3.588C17.998,6,17.998,2.413,17.998,2.413z M2,30V1.998h14    v6.001h6v6.06c-1.752,0.194-3.352,0.89-4.652,1.941H4v2h11.517c-0.412,0.616-0.743,1.289-0.994,2H4v2h10.059    C14.022,22.329,14,22.661,14,23c0,2.829,1.308,5.352,3.35,7H2z M23,29.883c-3.801-0.009-6.876-3.084-6.885-6.883    c0.009-3.801,3.084-6.876,6.885-6.885c3.799,0.009,6.874,3.084,6.883,6.885C29.874,26.799,26.799,29.874,23,29.883z" fill="#000000"/>
		<rect x="4" y="12" width="16" height="2" fill="#000000"/>
		<polygon points="25,19 23,21 21,19 19,21 21,23 19,25 21,27 23,25 25,27 27,25 25,23 27,21   " fill="#000000"/>
	</g>
</g>
<g>
</g>
<g>
</g>
<g>
</g>
<g>
</g>
<g>
</g>
<g>
</g>
<g>
</g>
<g>
</g>
<g>
</g>
<g>
</g>
<g>
</g>
<g>
</g>
<g>
</g>
<g>
</g>
<g>
</g>
</svg>
