<?xml version="1.0" encoding="iso-8859-1"?>
<!-- Generator: Adobe Illustrator 18.1.1, SVG Export Plug-In . SVG Version: 6.00 Build 0)  -->
<svg xmlns="http://www.w3.org/2000/svg" xmlns:xlink="http://www.w3.org/1999/xlink" version="1.1" id="Capa_1" x="0px" y="0px" viewBox="0 0 32 32" style="enable-background:new 0 0 32 32;" xml:space="preserve" width="32px" height="32px">
<g>
	<path d="M15.999,6C10.475,6,6,10.477,6,15.999s4.474,10,9.999,10c5.522,0,10-4.478,10-10S21.521,6,15.999,6z    M15.999,23.999c-4.419-0.009-7.992-3.581-8-8c0.008-4.417,3.581-7.992,8-8c4.419,0.008,7.991,3.583,8,8   C23.99,20.418,20.418,23.99,15.999,23.999z M18,14v-4h-4v4h-4v4h4v4h4v-4h4v-4H18z M15,0h2v4h-2V0z M15,28h2v4h-2V28z    M27.291,28.707l-3-3l1.416-1.416l3,3L27.291,28.707z M4.706,3.293l3,2.999L6.293,7.705l-3-2.999L4.706,3.293z M27.291,3.293   l1.417,1.415L25.709,7.71l-1.416-1.415L27.291,3.293z M4.708,28.705l-1.415-1.416l3.001-3l1.415,1.416L4.708,28.705z M0,15h4v2H0   V15z M28,15h4v2h-4V15z" fill="#000000"/>
</g>
<g>
</g>
<g>
</g>
<g>
</g>
<g>
</g>
<g>
</g>
<g>
</g>
<g>
</g>
<g>
</g>
<g>
</g>
<g>
</g>
<g>
</g>
<g>
</g>
<g>
</g>
<g>
</g>
<g>
</g>
</svg>
