<?xml version="1.0" encoding="iso-8859-1"?>
<!-- Generator: Adobe Illustrator 18.1.1, SVG Export Plug-In . SVG Version: 6.00 Build 0)  -->
<svg xmlns="http://www.w3.org/2000/svg" xmlns:xlink="http://www.w3.org/1999/xlink" version="1.1" id="Capa_1" x="0px" y="0px" viewBox="0 0 18 18" style="enable-background:new 0 0 18 18;" xml:space="preserve" width="32px" height="32px">
<g>
	<g>
		<path d="M9,0C4.027,0,0,4.027,0,9c0,4.971,4.027,8.998,9,9c4.971-0.002,8.998-4.029,9-9    C17.998,4.027,13.971,0,9,0z M9,15.883C5.199,15.874,2.124,12.799,2.115,9C2.124,5.199,5.199,2.124,9,2.116    C12.799,2.124,15.874,5.199,15.883,9C15.874,12.799,12.799,15.874,9,15.883z" fill="#000000"/>
		<path d="M12.337,7.999c-0.063-0.212-0.146-0.413-0.245-0.606l1.188-1.187l-1.416-1.415l-1.165,1.166    c-0.22-0.123-0.452-0.221-0.697-0.294V4h-2v1.662C7.773,5.73,7.556,5.82,7.351,5.932l-1.142-1.14L4.794,6.207l1.141,1.141    C5.82,7.555,5.73,7.771,5.662,8H4v2h1.662c0.072,0.246,0.172,0.479,0.295,0.698l-1.165,1.163l1.413,1.416l1.188-1.188    c0.192,0.102,0.395,0.182,0.605,0.245V14H10v-1.665c0.229-0.067,0.445-0.158,0.65-0.271l1.213,1.213l1.414-1.416l-1.213-1.211    c0.111-0.205,0.201-0.422,0.271-0.65H14V7.999C14,7.999,12.337,7.999,12.337,7.999z M8.999,10.499    c-0.829-0.002-1.498-0.671-1.501-1.5C7.501,8.17,8.17,7.501,8.999,7.498c0.829,0.003,1.498,0.672,1.5,1.501    C10.497,9.828,9.828,10.497,8.999,10.499z" fill="#000000"/>
	</g>
</g>
<g>
</g>
<g>
</g>
<g>
</g>
<g>
</g>
<g>
</g>
<g>
</g>
<g>
</g>
<g>
</g>
<g>
</g>
<g>
</g>
<g>
</g>
<g>
</g>
<g>
</g>
<g>
</g>
<g>
</g>
</svg>
